<svg width="85" height="28" viewBox="0 0 85 28" fill="none" xmlns="http://www.w3.org/2000/svg">
<path d="M14.202 15.114C14.202 16.545 12.825 17.571 10.908 17.571H6.723V12.576H10.908C12.825 12.576 14.202 13.629 14.202 15.114ZM10.692 5.205C12.42 5.205 13.662 6.096 13.662 7.365C13.662 8.634 12.42 9.498 10.692 9.498H6.723V5.205H10.692ZM11.826 21C15.957 21 18.846 18.867 18.846 15.654C18.846 13.359 17.496 11.496 15.525 11.01C17.172 10.551 18.306 8.958 18.306 6.987C18.306 3.99 15.498 1.776 11.502 1.776H2.187V21H11.826ZM21.0022 7.176V21H25.0522V7.176H21.0022ZM23.0272 5.34C24.4042 5.34 25.3762 4.395 25.3762 3.045C25.3762 1.722 24.4042 0.777 23.0272 0.777C21.6502 0.777 20.6782 1.722 20.6782 3.045C20.6782 4.395 21.6502 5.34 23.0272 5.34ZM34.4134 6.636C29.8774 6.636 26.7454 9.66 26.7454 14.088C26.7454 18.489 29.8774 21.54 34.4134 21.54C38.9764 21.54 42.1084 18.489 42.1084 14.088C42.1084 9.66 38.9764 6.636 34.4134 6.636ZM34.4134 17.976C32.3074 17.976 30.8224 16.356 30.8224 14.088C30.8224 11.82 32.3074 10.2 34.4134 10.2C36.5464 10.2 38.0314 11.82 38.0314 14.088C38.0314 16.356 36.5464 17.976 34.4134 17.976Z" fill="url(#paint0_linear)"/>
<path d="M45.728 0.965999V21H49.778V0.965999H45.728ZM58.8046 6.636C54.2686 6.636 51.1366 9.66 51.1366 14.088C51.1366 18.489 54.2686 21.54 58.8046 21.54C63.3676 21.54 66.4996 18.489 66.4996 14.088C66.4996 9.66 63.3676 6.636 58.8046 6.636ZM58.8046 17.976C56.6986 17.976 55.2136 16.356 55.2136 14.088C55.2136 11.82 56.6986 10.2 58.8046 10.2C60.9376 10.2 62.4226 11.82 62.4226 14.088C62.4226 16.356 60.9376 17.976 58.8046 17.976ZM74.9336 17.868C72.8276 17.868 71.3156 16.275 71.3156 14.088C71.3156 11.847 72.8276 10.2 74.9336 10.2C77.0396 10.2 78.5516 11.847 78.5516 14.088C78.5516 16.275 77.0396 17.868 74.9336 17.868ZM74.8796 24.537C73.2326 24.537 71.7746 23.403 71.4236 21.837L67.8056 22.242C68.2106 25.428 71.2616 27.75 75.0416 27.75C79.4156 27.75 82.4396 25.131 82.4396 20.838V7.176H78.3896V8.823C77.3366 7.473 75.7706 6.663 73.8266 6.663C70.0196 6.663 67.2656 9.741 67.2656 14.088C67.2656 18.273 70.0196 21.189 73.8266 21.189C75.7436 21.189 77.3096 20.406 78.3896 19.083V20.73C78.3896 23.133 76.9316 24.537 74.8796 24.537Z" fill="black"/>
<defs>
<linearGradient id="paint0_linear" x1="22" y1="0" x2="22" y2="21" gradientUnits="userSpaceOnUse">
<stop stop-color="#3CDC71"/>
<stop offset="1" stop-color="#0BD3A3"/>
</linearGradient>
</defs>
</svg>
